<?xml version="1.0" encoding="UTF-8" standalone="no"?>
<!-- Created with Inkscape (http://www.inkscape.org/) -->

<svg
   xmlns:dc="http://purl.org/dc/elements/1.1/"
   xmlns:cc="http://creativecommons.org/ns#"
   xmlns:rdf="http://www.w3.org/1999/02/22-rdf-syntax-ns#"
   xmlns:svg="http://www.w3.org/2000/svg"
   xmlns="http://www.w3.org/2000/svg"
   xmlns:sodipodi="http://sodipodi.sourceforge.net/DTD/sodipodi-0.dtd"
   xmlns:inkscape="http://www.inkscape.org/namespaces/inkscape"
   width="280mm"
   height="140mm"
   viewBox="0 0 280 140"
   version="1.1"
   id="svg8"
   inkscape:version="0.92.3 (2405546, 2018-03-11)"
   sodipodi:docname="LOGO_JIN_.svg"
   inkscape:export-filename="C:\Users\Tymek\Desktop\LOGO_JIN_SYGNET.svg.png"
   inkscape:export-xdpi="96"
   inkscape:export-ydpi="96">
  <defs
     id="defs2" />
  <sodipodi:namedview
     id="base"
     pagecolor="#ffffff"
     bordercolor="#666666"
     borderopacity="1.0"
     inkscape:pageopacity="0.0"
     inkscape:pageshadow="2"
     inkscape:zoom="0.1767767"
     inkscape:cx="-13.592883"
     inkscape:cy="1248.987"
     inkscape:document-units="mm"
     inkscape:current-layer="layer1"
     showgrid="false"
     inkscape:window-width="1920"
     inkscape:window-height="1018"
     inkscape:window-x="-8"
     inkscape:window-y="-8"
     inkscape:window-maximized="1"
     inkscape:measure-start="0,0"
     inkscape:measure-end="0,0"
     showguides="true"
     inkscape:guide-bbox="true">
    <sodipodi:guide
       position="58.274478,78.25052"
       orientation="0,1"
       id="guide1448"
       inkscape:locked="false" />
    <sodipodi:guide
       position="78.156291,126.83464"
       orientation="0,1"
       id="guide1450"
       inkscape:locked="false" />
  </sodipodi:namedview>
  <metadata
     id="metadata5">
    <rdf:RDF>
      <cc:Work
         rdf:about="">
        <dc:format>image/svg+xml</dc:format>
        <dc:type
           rdf:resource="http://purl.org/dc/dcmitype/StillImage" />
        <dc:title></dc:title>
      </cc:Work>
    </rdf:RDF>
  </metadata>
  <g
     inkscape:label="Layer 1"
     inkscape:groupmode="layer"
     id="layer1"
     transform="translate(0,-157)">
    <circle
       style="fill:#373636;fill-opacity:1;stroke:none;stroke-width:1.35092986;stroke-miterlimit:4;stroke-dasharray:none;stroke-opacity:1"
       id="path1400-0"
       cx="71.777222"
       cy="225.26851"
       r="54.055264" />
    <path
       style="fill:#ffffff;fill-opacity:1;stroke:none;stroke-width:0.1;stroke-linecap:butt;stroke-linejoin:miter;stroke-miterlimit:4;stroke-dasharray:none;stroke-opacity:1"
       d="m 39.452361,181.95489 a 54.055263,54.055263 0 0 0 -7.736993,7.01766 v 25.91366 c -0.989563,9.44458 -10.526067,7.16867 -12.768215,7.37061 l 1.133782,7.9375 c 15.257198,0.49541 19.196272,-9.28516 19.371426,-15.04817 z"
       id="path1402"
       inkscape:connector-curvature="0" />
    <rect
       style="fill:#ffffff;fill-opacity:1;stroke:none;stroke-width:0.19417466;stroke-miterlimit:4;stroke-dasharray:none;stroke-opacity:1"
       id="rect1446"
       width="7.5770912"
       height="48.584106"
       x="46.673157"
       y="181.62453" />
    <path
       style="fill:#ffffff;fill-opacity:1;stroke:none;stroke-width:0.18181777;stroke-miterlimit:4;stroke-dasharray:none;stroke-opacity:1"
       d="m 61.640155,179.32146 v 8.28993 42.5974 h 7.577315 v -30.93454 l 22.590352,24.62123 0.295071,0.32608 v -0.004 l 7.463629,8.13438 v -8.29006 -42.5974 h -7.576799 v 30.93506 l -22.590352,-24.62123 -0.29559,-0.3266 v 0.004 z"
       id="rect1446-6"
       inkscape:connector-curvature="0" />
    <path
       style="fill:#ffffff;fill-opacity:1;stroke:none;stroke-width:0.065;stroke-linecap:butt;stroke-linejoin:miter;stroke-opacity:1;stroke-miterlimit:4;stroke-dasharray:none"
       d="m 125.59646,229.98607 -91.669342,33.80672 a 54.055263,54.055263 0 0 0 6.54482,5.49424 l 83.664142,-30.85445 a 54.055263,54.055263 0 0 0 1.46038,-8.44651 z"
       id="path1526"
       inkscape:connector-curvature="0" />
    <path
       style="fill:#e80000;fill-opacity:1;stroke:none;stroke-width:0.26458332px;stroke-linecap:butt;stroke-linejoin:miter;stroke-opacity:1"
       d="m 124.13453,238.42948 -83.65794,30.85238 a 54.055263,54.055263 0 0 0 8.326622,4.83691 l 72.188878,-26.62215 a 54.055263,54.055263 0 0 0 3.14244,-9.06714 z"
       id="path1526-9"
       inkscape:connector-curvature="0" />
    <rect
       style="fill:#373636;fill-opacity:1;stroke:none;stroke-width:0.50899464;stroke-miterlimit:4;stroke-dasharray:none;stroke-opacity:1"
       id="rect1588"
       width="1.7032552"
       height="108.39003"
       x="133.25078"
       y="171.3607" />
    <g
       aria-label="JAWORZNICKA
INICJATYWA
NARODOWA"
       transform="matrix(0.44811413,0,0,0.44811413,54.850931,25.097686)"
       style="font-style:normal;font-weight:normal;font-size:40px;line-height:1.25;font-family:sans-serif;letter-spacing:0px;word-spacing:0px;fill:#373636;fill-opacity:1;stroke:none"
       id="flowRoot823">
      <path
         d="m 194.18805,410.18837 c 0.84,0.2 1.8,0.32 2.84,0.32 4.2,-0.16 6.24,-1.56 7.04,-4.04 0.6,-1.8 0.68,-3.12 0.68,-5.24 v -19.08 h -5 v 19.32 c 0,2.88 -0.68,4.52 -3.28,4.52 -0.88,0 -1.64,-0.12 -2.28,-0.32 z"
         style="font-style:normal;font-variant:normal;font-weight:600;font-stretch:normal;line-height:0.75;font-family:'Hurme Geometric Sans 2';-inkscape-font-specification:'Hurme Geometric Sans 2 Semi-Bold';fill:#373636;fill-opacity:1"
         id="path841"
         inkscape:connector-curvature="0" />
      <path
         d="m 212.4843,410.02837 2.48,-5.4 h 12 l 2.48,5.4 h 5.32 l -13.76,-29.24 -13.8,29.24 z m 8.48,-18.8 4.12,9.08 h -8.24 z"
         style="font-style:normal;font-variant:normal;font-weight:600;font-stretch:normal;line-height:0.75;font-family:'Hurme Geometric Sans 2';-inkscape-font-specification:'Hurme Geometric Sans 2 Semi-Bold';fill:#373636;fill-opacity:1"
         id="path843"
         inkscape:connector-curvature="0" />
      <path
         d="m 250.84242,392.30837 8.64,18.84 9.84,-29 h -5.08 l -5.64,16.64 -7.76,-17.12 -7.88,17.16 -5.56,-16.68 h -5.08 l 9.76,28.96 z"
         style="font-style:normal;font-variant:normal;font-weight:600;font-stretch:normal;line-height:0.75;font-family:'Hurme Geometric Sans 2';-inkscape-font-specification:'Hurme Geometric Sans 2 Semi-Bold';fill:#373636;fill-opacity:1"
         id="path845"
         inkscape:connector-curvature="0" />
      <path
         d="m 285.14617,410.58837 c 4.12,0 7.64,-1.4 10.48,-4.16 2.84,-2.76 4.28,-6.2 4.28,-10.28 0,-4.08 -1.44,-7.52 -4.32,-10.28 -2.84,-2.8 -6.32,-4.2 -10.44,-4.2 -4.12,0 -7.6,1.4 -10.44,4.2 -2.84,2.76 -4.28,6.2 -4.28,10.28 0,4.08 1.44,7.52 4.28,10.28 2.84,2.76 6.32,4.16 10.44,4.16 z m -9.8,-14.44 c 0,-2.8 0.92,-5.16 2.8,-7.08 1.88,-1.92 4.24,-2.88 7,-2.88 2.76,0 5.08,0.96 6.96,2.88 1.88,1.92 2.84,4.28 2.84,7.08 0,2.8 -0.96,5.16 -2.84,7.08 -1.88,1.88 -4.2,2.84 -6.96,2.84 -2.76,0 -5.12,-0.96 -7,-2.84 -1.88,-1.88 -2.8,-4.24 -2.8,-7.08 z"
         style="font-style:normal;font-variant:normal;font-weight:600;font-stretch:normal;line-height:0.75;font-family:'Hurme Geometric Sans 2';-inkscape-font-specification:'Hurme Geometric Sans 2 Semi-Bold';fill:#373636;fill-opacity:1"
         id="path847"
         inkscape:connector-curvature="0" />
      <path
         d="m 309.56242,410.02837 v -9.92 h 4.88 0.08 l 5.96,9.92 h 5.64 l -6.76,-11.12 c 3.04,-1.28 5.08,-4.28 5.08,-7.92 0,-2.52 -0.88,-4.6 -2.64,-6.28 -1.76,-1.72 -3.88,-2.56 -6.4,-2.56 h -10.84 v 27.88 z m 0,-23.36 h 5.72 c 2.4,0 4.2,1.84 4.2,4.4 0,2.68 -1.88,4.56 -4.6,4.56 h -5.32 z"
         style="font-style:normal;font-variant:normal;font-weight:600;font-stretch:normal;line-height:0.75;font-family:'Hurme Geometric Sans 2';-inkscape-font-specification:'Hurme Geometric Sans 2 Semi-Bold';fill:#373636;fill-opacity:1"
         id="path849"
         inkscape:connector-curvature="0" />
      <path
         d="m 350.96055,410.02837 v -4.52 h -15.12 l 15.72,-23.36 h -21.32 v 4.52 h 12.84 l -15.76,23.36 z"
         style="font-style:normal;font-variant:normal;font-weight:600;font-stretch:normal;line-height:0.75;font-family:'Hurme Geometric Sans 2';-inkscape-font-specification:'Hurme Geometric Sans 2 Semi-Bold';fill:#373636;fill-opacity:1"
         id="path851"
         inkscape:connector-curvature="0" />
      <path
         d="m 360.49992,410.02837 v -17.52 l 19,18.56 v -28.92 h -5 v 17.6 l -19,-18.64 v 28.92 z"
         style="font-style:normal;font-variant:normal;font-weight:600;font-stretch:normal;line-height:0.75;font-family:'Hurme Geometric Sans 2';-inkscape-font-specification:'Hurme Geometric Sans 2 Semi-Bold';fill:#373636;fill-opacity:1"
         id="path853"
         inkscape:connector-curvature="0" />
      <path
         d="m 390.81617,410.02837 v -27.88 h -5 v 27.88 z"
         style="font-style:normal;font-variant:normal;font-weight:600;font-stretch:normal;line-height:0.75;font-family:'Hurme Geometric Sans 2';-inkscape-font-specification:'Hurme Geometric Sans 2 Semi-Bold';fill:#373636;fill-opacity:1"
         id="path855"
         inkscape:connector-curvature="0" />
      <path
         d="m 410.46055,381.66837 c -4.12,0 -7.64,1.36 -10.52,4.12 -2.84,2.76 -4.28,6.2 -4.28,10.32 0,4.12 1.44,7.56 4.28,10.32 2.88,2.72 6.4,4.08 10.52,4.08 4.36,0 8.36,-1.88 11.08,-5.08 l -3.36,-2.92 c -1.96,2.32 -4.56,3.48 -7.72,3.48 -2.8,0 -5.16,-0.92 -7.04,-2.8 -1.88,-1.88 -2.8,-4.24 -2.8,-7.08 0,-2.84 0.92,-5.2 2.8,-7.08 1.88,-1.88 4.24,-2.84 7.04,-2.84 3.08,0 5.64,1.12 7.64,3.4 l 3.4,-2.92 c -2.92,-3.32 -6.6,-5 -11.04,-5 z"
         style="font-style:normal;font-variant:normal;font-weight:600;font-stretch:normal;line-height:0.75;font-family:'Hurme Geometric Sans 2';-inkscape-font-specification:'Hurme Geometric Sans 2 Semi-Bold';fill:#373636;fill-opacity:1"
         id="path857"
         inkscape:connector-curvature="0" />
      <path
         d="m 430.65617,410.02837 v -8.16 l 3.52,-3.88 8.68,12.04 h 5.84 l -11.16,-15.6 10.84,-12.28 h -5.92 l -11.8,13.36 v -13.36 h -5 v 27.88 z"
         style="font-style:normal;font-variant:normal;font-weight:600;font-stretch:normal;line-height:0.75;font-family:'Hurme Geometric Sans 2';-inkscape-font-specification:'Hurme Geometric Sans 2 Semi-Bold';fill:#373636;fill-opacity:1"
         id="path859"
         inkscape:connector-curvature="0" />
      <path
         d="m 453.89055,410.02837 2.48,-5.4 h 12 l 2.48,5.4 h 5.32 l -13.76,-29.24 -13.8,29.24 z m 8.48,-18.8 4.12,9.08 h -8.24 z"
         style="font-style:normal;font-variant:normal;font-weight:600;font-stretch:normal;line-height:0.75;font-family:'Hurme Geometric Sans 2';-inkscape-font-specification:'Hurme Geometric Sans 2 Semi-Bold';fill:#373636;fill-opacity:1"
         id="path861"
         inkscape:connector-curvature="0" />
      <path
         d="m 201.98805,460.02837 v -27.88 h -5 v 27.88 z"
         style="font-style:normal;font-variant:normal;font-weight:600;font-stretch:normal;line-height:0.75;font-family:'Hurme Geometric Sans 2';-inkscape-font-specification:'Hurme Geometric Sans 2 Semi-Bold';fill:#373636;fill-opacity:1"
         id="path863"
         inkscape:connector-curvature="0" />
      <path
         d="m 213.31242,460.02837 v -17.52 l 19,18.56 v -28.92 h -5 v 17.6 l -19,-18.64 v 28.92 z"
         style="font-style:normal;font-variant:normal;font-weight:600;font-stretch:normal;line-height:0.75;font-family:'Hurme Geometric Sans 2';-inkscape-font-specification:'Hurme Geometric Sans 2 Semi-Bold';fill:#373636;fill-opacity:1"
         id="path865"
         inkscape:connector-curvature="0" />
      <path
         d="m 243.62867,460.02837 v -27.88 h -5 v 27.88 z"
         style="font-style:normal;font-variant:normal;font-weight:600;font-stretch:normal;line-height:0.75;font-family:'Hurme Geometric Sans 2';-inkscape-font-specification:'Hurme Geometric Sans 2 Semi-Bold';fill:#373636;fill-opacity:1"
         id="path867"
         inkscape:connector-curvature="0" />
      <path
         d="m 263.27305,431.66837 c -4.12,0 -7.64,1.36 -10.52,4.12 -2.84,2.76 -4.28,6.2 -4.28,10.32 0,4.12 1.44,7.56 4.28,10.32 2.88,2.72 6.4,4.08 10.52,4.08 4.36,0 8.36,-1.88 11.08,-5.08 l -3.36,-2.92 c -1.96,2.32 -4.56,3.48 -7.72,3.48 -2.8,0 -5.16,-0.92 -7.04,-2.8 -1.88,-1.88 -2.8,-4.24 -2.8,-7.08 0,-2.84 0.92,-5.2 2.8,-7.08 1.88,-1.88 4.24,-2.84 7.04,-2.84 3.08,0 5.64,1.12 7.64,3.4 l 3.4,-2.92 c -2.92,-3.32 -6.6,-5 -11.04,-5 z"
         style="font-style:normal;font-variant:normal;font-weight:600;font-stretch:normal;line-height:0.75;font-family:'Hurme Geometric Sans 2';-inkscape-font-specification:'Hurme Geometric Sans 2 Semi-Bold';fill:#373636;fill-opacity:1"
         id="path869"
         inkscape:connector-curvature="0" />
      <path
         d="m 275.82867,460.18837 c 0.84,0.2 1.8,0.32 2.84,0.32 4.2,-0.16 6.24,-1.56 7.04,-4.04 0.6,-1.8 0.68,-3.12 0.68,-5.24 v -19.08 h -5 v 19.32 c 0,2.88 -0.68,4.52 -3.28,4.52 -0.88,0 -1.64,-0.12 -2.28,-0.32 z"
         style="font-style:normal;font-variant:normal;font-weight:600;font-stretch:normal;line-height:0.75;font-family:'Hurme Geometric Sans 2';-inkscape-font-specification:'Hurme Geometric Sans 2 Semi-Bold';fill:#373636;fill-opacity:1"
         id="path871"
         inkscape:connector-curvature="0" />
      <path
         d="m 294.12492,460.02837 2.48,-5.4 h 12 l 2.48,5.4 h 5.32 l -13.76,-29.24 -13.8,29.24 z m 8.48,-18.8 4.12,9.08 h -8.24 z"
         style="font-style:normal;font-variant:normal;font-weight:600;font-stretch:normal;line-height:0.75;font-family:'Hurme Geometric Sans 2';-inkscape-font-specification:'Hurme Geometric Sans 2 Semi-Bold';fill:#373636;fill-opacity:1"
         id="path873"
         inkscape:connector-curvature="0" />
      <path
         d="m 327.02992,460.02837 v -23.36 h 7.56 v -4.52 h -20.12 v 4.52 h 7.56 v 23.36 z"
         style="font-style:normal;font-variant:normal;font-weight:600;font-stretch:normal;line-height:0.75;font-family:'Hurme Geometric Sans 2';-inkscape-font-specification:'Hurme Geometric Sans 2 Semi-Bold';fill:#373636;fill-opacity:1"
         id="path875"
         inkscape:connector-curvature="0" />
      <path
         d="m 351.10867,460.02837 v -10.8 l 10.04,-17.08 h -5.36 l -7.12,12.28 -7.16,-12.28 h -5.4 l 10.04,17.08 v 10.8 z"
         style="font-style:normal;font-variant:normal;font-weight:600;font-stretch:normal;line-height:0.75;font-family:'Hurme Geometric Sans 2';-inkscape-font-specification:'Hurme Geometric Sans 2 Semi-Bold';fill:#373636;fill-opacity:1"
         id="path877"
         inkscape:connector-curvature="0" />
      <path
         d="m 380.06117,442.30837 8.64,18.84 9.84,-29 h -5.08 l -5.64,16.64 -7.76,-17.12 -7.88,17.16 -5.56,-16.68 h -5.08 l 9.76,28.96 z"
         style="font-style:normal;font-variant:normal;font-weight:600;font-stretch:normal;line-height:0.75;font-family:'Hurme Geometric Sans 2';-inkscape-font-specification:'Hurme Geometric Sans 2 Semi-Bold';fill:#373636;fill-opacity:1"
         id="path879"
         inkscape:connector-curvature="0" />
      <path
         d="m 401.31242,460.02837 2.48,-5.4 h 12 l 2.48,5.4 h 5.32 l -13.76,-29.24 -13.8,29.24 z m 8.48,-18.8 4.12,9.08 h -8.24 z"
         style="font-style:normal;font-variant:normal;font-weight:600;font-stretch:normal;line-height:0.75;font-family:'Hurme Geometric Sans 2';-inkscape-font-specification:'Hurme Geometric Sans 2 Semi-Bold';fill:#373636;fill-opacity:1"
         id="path881"
         inkscape:connector-curvature="0" />
      <path
         d="m 201.82805,510.02837 v -17.52 l 19,18.56 v -28.92 h -5 v 17.6 l -19,-18.64 v 28.92 z"
         style="font-style:normal;font-variant:normal;font-weight:600;font-stretch:normal;line-height:0.75;font-family:'Hurme Geometric Sans 2';-inkscape-font-specification:'Hurme Geometric Sans 2 Semi-Bold';fill:#373636;fill-opacity:1"
         id="path883"
         inkscape:connector-curvature="0" />
      <path
         d="m 229.9843,510.02837 2.48,-5.4 h 12 l 2.48,5.4 h 5.32 l -13.76,-29.24 -13.8,29.24 z m 8.48,-18.8 4.12,9.08 h -8.24 z"
         style="font-style:normal;font-variant:normal;font-weight:600;font-stretch:normal;line-height:0.75;font-family:'Hurme Geometric Sans 2';-inkscape-font-specification:'Hurme Geometric Sans 2 Semi-Bold';fill:#373636;fill-opacity:1"
         id="path885"
         inkscape:connector-curvature="0" />
      <path
         d="m 261.12492,510.02837 v -9.92 h 4.88 0.08 l 5.96,9.92 h 5.64 l -6.76,-11.12 c 3.04,-1.28 5.08,-4.28 5.08,-7.92 0,-2.52 -0.88,-4.6 -2.64,-6.28 -1.76,-1.72 -3.88,-2.56 -6.4,-2.56 h -10.84 v 27.88 z m 0,-23.36 h 5.72 c 2.4,0 4.2,1.84 4.2,4.4 0,2.68 -1.88,4.56 -4.6,4.56 h -5.32 z"
         style="font-style:normal;font-variant:normal;font-weight:600;font-stretch:normal;line-height:0.75;font-family:'Hurme Geometric Sans 2';-inkscape-font-specification:'Hurme Geometric Sans 2 Semi-Bold';fill:#373636;fill-opacity:1"
         id="path887"
         inkscape:connector-curvature="0" />
      <path
         d="m 294.52117,510.58837 c 4.12,0 7.64,-1.4 10.48,-4.16 2.84,-2.76 4.28,-6.2 4.28,-10.28 0,-4.08 -1.44,-7.52 -4.32,-10.28 -2.84,-2.8 -6.32,-4.2 -10.44,-4.2 -4.12,0 -7.6,1.4 -10.44,4.2 -2.84,2.76 -4.28,6.2 -4.28,10.28 0,4.08 1.44,7.52 4.28,10.28 2.84,2.76 6.32,4.16 10.44,4.16 z m -9.8,-14.44 c 0,-2.8 0.92,-5.16 2.8,-7.08 1.88,-1.92 4.24,-2.88 7,-2.88 2.76,0 5.08,0.96 6.96,2.88 1.88,1.92 2.84,4.28 2.84,7.08 0,2.8 -0.96,5.16 -2.84,7.08 -1.88,1.88 -4.2,2.84 -6.96,2.84 -2.76,0 -5.12,-0.96 -7,-2.84 -1.88,-1.88 -2.8,-4.24 -2.8,-7.08 z"
         style="font-style:normal;font-variant:normal;font-weight:600;font-stretch:normal;line-height:0.75;font-family:'Hurme Geometric Sans 2';-inkscape-font-specification:'Hurme Geometric Sans 2 Semi-Bold';fill:#373636;fill-opacity:1"
         id="path889"
         inkscape:connector-curvature="0" />
      <path
         d="m 323.93742,510.02837 c 4.6,0 8.2,-1.28 10.76,-3.8 2.56,-2.52 3.84,-5.88 3.84,-10.08 0,-4.2 -1.28,-7.56 -3.88,-10.12 -2.56,-2.6 -6.16,-3.88 -10.76,-3.88 h -9.96 v 27.88 z m -5,-23.36 h 4.6 c 7,0 10,3.6 10,9.48 0,5.72 -3.04,9.36 -9.96,9.36 h -4.64 z"
         style="font-style:normal;font-variant:normal;font-weight:600;font-stretch:normal;line-height:0.75;font-family:'Hurme Geometric Sans 2';-inkscape-font-specification:'Hurme Geometric Sans 2 Semi-Bold';fill:#373636;fill-opacity:1"
         id="path891"
         inkscape:connector-curvature="0" />
      <path
         d="m 356.4743,510.58837 c 4.12,0 7.64,-1.4 10.48,-4.16 2.84,-2.76 4.28,-6.2 4.28,-10.28 0,-4.08 -1.44,-7.52 -4.32,-10.28 -2.84,-2.8 -6.32,-4.2 -10.44,-4.2 -4.12,0 -7.6,1.4 -10.44,4.2 -2.84,2.76 -4.28,6.2 -4.28,10.28 0,4.08 1.44,7.52 4.28,10.28 2.84,2.76 6.32,4.16 10.44,4.16 z m -9.8,-14.44 c 0,-2.8 0.92,-5.16 2.8,-7.08 1.88,-1.92 4.24,-2.88 7,-2.88 2.76,0 5.08,0.96 6.96,2.88 1.88,1.92 2.84,4.28 2.84,7.08 0,2.8 -0.96,5.16 -2.84,7.08 -1.88,1.88 -4.2,2.84 -6.96,2.84 -2.76,0 -5.12,-0.96 -7,-2.84 -1.88,-1.88 -2.8,-4.24 -2.8,-7.08 z"
         style="font-style:normal;font-variant:normal;font-weight:600;font-stretch:normal;line-height:0.75;font-family:'Hurme Geometric Sans 2';-inkscape-font-specification:'Hurme Geometric Sans 2 Semi-Bold';fill:#373636;fill-opacity:1"
         id="path893"
         inkscape:connector-curvature="0" />
      <path
         d="m 390.84242,492.30837 8.64,18.84 9.84,-29 h -5.08 l -5.64,16.64 -7.76,-17.12 -7.88,17.16 -5.56,-16.68 h -5.08 l 9.76,28.96 z"
         style="font-style:normal;font-variant:normal;font-weight:600;font-stretch:normal;line-height:0.75;font-family:'Hurme Geometric Sans 2';-inkscape-font-specification:'Hurme Geometric Sans 2 Semi-Bold';fill:#373636;fill-opacity:1"
         id="path895"
         inkscape:connector-curvature="0" />
      <path
         d="m 412.09367,510.02837 2.48,-5.4 h 12 l 2.48,5.4 h 5.32 l -13.76,-29.24 -13.8,29.24 z m 8.48,-18.8 4.12,9.08 h -8.24 z"
         style="font-style:normal;font-variant:normal;font-weight:600;font-stretch:normal;line-height:0.75;font-family:'Hurme Geometric Sans 2';-inkscape-font-specification:'Hurme Geometric Sans 2 Semi-Bold';fill:#373636;fill-opacity:1"
         id="path897"
         inkscape:connector-curvature="0" />
    </g>
  </g>
</svg>
